<?xml version="1.0" encoding="UTF-8"?>
<svg id="Layer_2" data-name="Layer 2" xmlns="http://www.w3.org/2000/svg" viewBox="0 0 1377.79 282.48">
  <defs>
    <style>
      .cls-1 {
        fill: #fff;
      }
    </style>
  </defs>
  <g id="Logo_Text" data-name="Logo Text">
    <g>
      <path class="cls-1" d="M399.78,12.8c0-3.6,1.23-6.64,3.7-9.1S408.98,0,412.58,0s6.69,1.24,9.25,3.7c2.56,2.47,3.84,5.5,3.84,9.1v126.31c0,10.24-1.99,19.91-5.97,29.02s-9.34,17.07-16.07,23.9c-6.73,6.83-14.65,12.19-23.75,16.07-9.1,3.89-18.87,5.83-29.3,5.83s-19.91-1.94-29.02-5.83c-9.1-3.88-17.07-9.25-23.9-16.07-6.83-6.83-12.19-14.79-16.07-23.9-3.89-9.1-5.83-18.78-5.83-29.02s1.94-20.2,5.83-29.3c3.88-9.1,9.25-17.02,16.07-23.75,6.83-6.73,14.79-12.04,23.9-15.93,9.1-3.88,18.78-5.83,29.02-5.83,9.1-.19,17.87,1.28,26.31,4.41,8.44,3.13,16.07,7.73,22.9,13.8V12.8ZM350.57,188.32c6.83,0,13.23-1.28,19.2-3.84,5.97-2.56,11.19-6.07,15.65-10.53s7.97-9.67,10.53-15.65c2.56-5.97,3.84-12.37,3.84-19.2s-1.28-13.23-3.84-19.2-6.07-11.19-10.53-15.65c-4.46-4.45-9.67-7.97-15.65-10.53-5.97-2.56-12.37-3.84-19.2-3.84s-13.23,1.28-19.2,3.84c-5.97,2.56-11.19,6.07-15.65,10.53s-7.97,9.67-10.53,15.65-3.84,12.37-3.84,19.2,1.28,13.23,3.84,19.2c2.56,5.97,6.07,11.19,10.53,15.65,4.45,4.46,9.67,7.97,15.65,10.53,5.97,2.56,12.37,3.84,19.2,3.84Z"/>
      <path class="cls-1" d="M515.85,64.29c10.43,0,20.2,1.95,29.3,5.83,9.1,3.89,17.02,9.2,23.75,15.93,6.73,6.73,12.04,14.65,15.93,23.75,3.88,9.1,5.83,18.87,5.83,29.3,0,3.6-1.24,6.64-3.7,9.1s-5.5,3.7-9.1,3.7h-109.52c1.52,5.31,3.79,10.2,6.83,14.65,3.03,4.46,6.64,8.3,10.81,11.52,4.17,3.23,8.82,5.74,13.94,7.54,5.12,1.8,10.43,2.7,15.93,2.7,7.21,0,14.03-1.47,20.48-4.41,6.45-2.94,12.04-7.16,16.78-12.66,2.65-3.03,5.88-4.55,9.67-4.55,3.22,0,6.07,1.14,8.53,3.41,2.65,2.28,4.08,5.17,4.27,8.68.19,3.51-.85,6.59-3.13,9.25-7.21,8.35-15.7,14.75-25.46,19.2-9.77,4.46-20.15,6.69-31.15,6.69-10.24,0-19.91-1.94-29.02-5.83-9.1-3.88-17.07-9.25-23.9-16.07-6.83-6.83-12.19-14.79-16.07-23.9-3.89-9.1-5.83-18.78-5.83-29.02s1.94-20.2,5.83-29.3c3.88-9.1,9.25-17.02,16.07-23.75,6.83-6.73,14.79-12.04,23.9-15.93,9.1-3.88,18.78-5.83,29.02-5.83ZM563.35,126.31c-1.33-5.5-3.56-10.48-6.69-14.93-3.13-4.45-6.78-8.25-10.95-11.38-4.17-3.13-8.82-5.59-13.94-7.4-5.12-1.8-10.43-2.7-15.93-2.7-11.19,0-21.15,3.37-29.87,10.1-8.73,6.73-14.61,15.5-17.64,26.31h95.01Z"/>
      <path class="cls-1" d="M676.57,64.29c10.43,0,20.2,1.95,29.3,5.83,9.1,3.89,17.02,9.2,23.75,15.93,6.73,6.73,12.04,14.65,15.93,23.75,3.88,9.1,5.83,18.87,5.83,29.3,0,3.6-1.24,6.64-3.7,9.1s-5.5,3.7-9.1,3.7h-109.52c1.52,5.31,3.79,10.2,6.83,14.65,3.03,4.46,6.64,8.3,10.81,11.52,4.17,3.23,8.82,5.74,13.94,7.54,5.12,1.8,10.43,2.7,15.93,2.7,7.21,0,14.03-1.47,20.48-4.41,6.45-2.94,12.04-7.16,16.78-12.66,2.65-3.03,5.88-4.55,9.67-4.55,3.22,0,6.07,1.14,8.53,3.41,2.65,2.28,4.08,5.17,4.27,8.68.19,3.51-.85,6.59-3.13,9.25-7.21,8.35-15.7,14.75-25.46,19.2-9.77,4.46-20.15,6.69-31.15,6.69-10.24,0-19.91-1.94-29.02-5.83-9.1-3.88-17.07-9.25-23.9-16.07-6.83-6.83-12.19-14.79-16.07-23.9-3.89-9.1-5.83-18.78-5.83-29.02s1.94-20.2,5.83-29.3c3.88-9.1,9.25-17.02,16.07-23.75,6.83-6.73,14.79-12.04,23.9-15.93,9.1-3.88,18.78-5.83,29.02-5.83ZM724.08,126.31c-1.33-5.5-3.56-10.48-6.69-14.93-3.13-4.45-6.78-8.25-10.95-11.38-4.17-3.13-8.82-5.59-13.94-7.4-5.12-1.8-10.43-2.7-15.93-2.7-11.19,0-21.15,3.37-29.87,10.1-8.73,6.73-14.61,15.5-17.64,26.31h95.01Z"/>
      <path class="cls-1" d="M765.89,139.11c0-10.43,1.94-20.2,5.83-29.3,3.88-9.1,9.25-17.02,16.07-23.75,6.83-6.73,14.79-12.09,23.9-16.07,9.1-3.98,18.78-5.97,29.02-5.97s20.2,1.99,29.3,5.97,17.02,9.34,23.75,16.07c6.73,6.73,12.04,14.65,15.93,23.75,3.88,9.1,5.83,18.87,5.83,29.3s-1.95,19.91-5.83,29.02c-3.89,9.1-9.2,17.07-15.93,23.9-6.73,6.83-14.65,12.19-23.75,16.07-9.1,3.89-18.87,5.83-29.3,5.83-9.1,0-17.88-1.56-26.31-4.69-8.44-3.13-16.07-7.73-22.9-13.8v74.25c0,3.6-1.24,6.64-3.7,9.1-2.47,2.46-5.5,3.7-9.1,3.7s-6.64-1.24-9.1-3.7c-2.47-2.47-3.7-5.5-3.7-9.1v-130.57ZM840.71,188.32c6.83,0,13.23-1.28,19.2-3.84,5.97-2.56,11.19-6.07,15.65-10.53,4.45-4.45,7.97-9.67,10.53-15.65,2.56-5.97,3.84-12.37,3.84-19.2s-1.28-13.23-3.84-19.2-6.07-11.19-10.53-15.65c-4.46-4.45-9.67-7.97-15.65-10.53-5.97-2.56-12.37-3.84-19.2-3.84s-13.23,1.28-19.2,3.84c-5.97,2.56-11.19,6.07-15.65,10.53-4.46,4.46-7.97,9.67-10.53,15.65s-3.84,12.37-3.84,19.2,1.28,13.23,3.84,19.2c2.56,5.97,6.07,11.19,10.53,15.65,4.45,4.46,9.67,7.97,15.65,10.53,5.97,2.56,12.37,3.84,19.2,3.84Z"/>
      <path class="cls-1" d="M1033.3,65.43c3.41,0,6.4,1.28,8.96,3.84s3.84,5.65,3.84,9.25-1.28,6.64-3.84,9.1c-2.56,2.47-5.55,3.7-8.96,3.7h-63.15c-4.55,0-8.44,1.56-11.66,4.69-3.23,3.13-4.84,6.97-4.84,11.52,0,3.98,1.32,7.45,3.98,10.38,2.65,2.94,5.88,4.6,9.67,4.98l52.06,6.54c5.12.76,9.91,2.32,14.37,4.69,4.45,2.37,8.29,5.41,11.52,9.1,3.22,3.7,5.73,7.87,7.54,12.52,1.8,4.65,2.7,9.53,2.7,14.65,0,5.88-1.09,11.38-3.27,16.5-2.18,5.12-5.17,9.58-8.96,13.37-3.8,3.8-8.25,6.78-13.37,8.96-5.12,2.18-10.62,3.27-16.5,3.27h-67.7c-3.6,0-6.64-1.23-9.1-3.7-2.47-2.46-3.7-5.5-3.7-9.1s1.23-6.64,3.7-9.1c2.46-2.46,5.5-3.7,9.1-3.7h67.7c4.55,0,8.44-1.61,11.66-4.84,3.22-3.22,4.84-7.11,4.84-11.66,0-3.79-1.33-7.21-3.98-10.24-2.66-3.03-5.88-4.74-9.67-5.12l-52.06-6.54c-5.12-.57-9.91-2.08-14.37-4.55-4.46-2.46-8.3-5.5-11.52-9.1-3.23-3.6-5.74-7.77-7.54-12.52-1.8-4.74-2.7-9.67-2.7-14.79,0-5.69,1.09-11.09,3.27-16.22,2.18-5.12,5.16-9.57,8.96-13.37,3.79-3.79,8.25-6.78,13.37-8.96,5.12-2.18,10.62-3.27,16.5-3.27h63.15s0-.28,0-.28Z"/>
      <path class="cls-1" d="M1142.25,64.29c10.43,0,20.2,1.95,29.3,5.83,9.1,3.89,17.02,9.2,23.75,15.93,6.73,6.73,12.04,14.65,15.93,23.75,3.88,9.1,5.83,18.87,5.83,29.3,0,3.6-1.24,6.64-3.7,9.1-2.47,2.47-5.5,3.7-9.1,3.7h-109.52c1.52,5.31,3.79,10.2,6.83,14.65,3.03,4.46,6.64,8.3,10.81,11.52,4.17,3.23,8.82,5.74,13.94,7.54,5.12,1.8,10.43,2.7,15.93,2.7,7.21,0,14.03-1.47,20.48-4.41,6.45-2.94,12.04-7.16,16.78-12.66,2.65-3.03,5.88-4.55,9.67-4.55,3.22,0,6.07,1.14,8.53,3.41,2.65,2.28,4.08,5.17,4.27,8.68.19,3.51-.85,6.59-3.13,9.25-7.21,8.35-15.69,14.75-25.46,19.2-9.77,4.46-20.15,6.69-31.15,6.69-10.24,0-19.91-1.94-29.02-5.83-9.1-3.88-17.07-9.25-23.9-16.07-6.83-6.83-12.19-14.79-16.07-23.9-3.89-9.1-5.83-18.78-5.83-29.02s1.94-20.2,5.83-29.3c3.88-9.1,9.25-17.02,16.07-23.75,6.83-6.73,14.79-12.04,23.9-15.93,9.1-3.88,18.78-5.83,29.02-5.83ZM1189.76,126.31c-1.33-5.5-3.56-10.48-6.69-14.93-3.13-4.45-6.78-8.25-10.95-11.38-4.17-3.13-8.82-5.59-13.94-7.4-5.12-1.8-10.43-2.7-15.93-2.7-11.19,0-21.15,3.37-29.87,10.1-8.73,6.73-14.61,15.5-17.64,26.31h95.01Z"/>
      <path class="cls-1" d="M1352.19,195.43c-6.83,6.07-14.46,10.67-22.9,13.8-8.44,3.13-17.21,4.69-26.31,4.69-10.24,0-19.91-1.94-29.02-5.83-9.1-3.88-17.07-9.25-23.9-16.07-6.83-6.83-12.19-14.79-16.07-23.9-3.89-9.1-5.83-18.78-5.83-29.02,0-10.43,1.94-20.2,5.83-29.3,3.88-9.1,9.25-17.02,16.07-23.75,6.83-6.73,14.79-12.09,23.9-16.07,9.1-3.98,18.78-5.97,29.02-5.97s20.2,1.99,29.3,5.97c9.1,3.98,17.02,9.34,23.75,16.07,6.73,6.73,12.04,14.65,15.93,23.75,3.88,9.1,5.83,18.87,5.83,29.3v62.02c0,3.6-1.24,6.64-3.7,9.1-2.47,2.47-5.5,3.7-9.1,3.7s-6.64-1.23-9.1-3.7c-2.47-2.46-3.7-5.5-3.7-9.1v-5.69ZM1302.97,89.89c-6.83,0-13.23,1.28-19.2,3.84-5.97,2.56-11.19,6.07-15.65,10.53-4.46,4.46-7.97,9.67-10.53,15.65-2.56,5.97-3.84,12.37-3.84,19.2s1.28,13.23,3.84,19.2c2.56,5.97,6.07,11.19,10.53,15.65,4.45,4.46,9.67,7.97,15.65,10.53s12.37,3.84,19.2,3.84,13.23-1.28,19.2-3.84c5.97-2.56,11.19-6.07,15.65-10.53,4.45-4.45,7.97-9.67,10.53-15.65,2.56-5.97,3.84-12.37,3.84-19.2s-1.28-13.23-3.84-19.2-6.07-11.19-10.53-15.65c-4.46-4.45-9.67-7.97-15.65-10.53-5.97-2.56-12.37-3.84-19.2-3.84Z"/>
    </g>
    <g>
      <path class="cls-1" d="M209.44,96.66c-5.49-12.98-13.34-24.64-23.35-34.64-10-10-21.66-17.86-34.64-23.35-13.45-5.68-27.73-8.56-42.45-8.56v.22c0,12.35,7.75,23.2,19.13,27.46-3.55,6.97-2.91,16,3.51,22.41h0c9.92-9.92,25.94-10.01,35.98-.28,15.26,15.12,24.73,36.07,24.73,59.19,0,12.44-2.66,24.39-7.91,35.53-3.02,6.41-.27,14.05,6.13,17.07,1.77.83,3.63,1.23,5.46,1.23,4.81,0,9.42-2.72,11.61-7.36,6.87-14.58,10.36-30.22,10.36-46.47,0-14.72-2.88-29-8.56-42.45Z"/>
      <path class="cls-1" d="M109.18,206.43h-.18c-9.08,0-17.9-1.78-26.21-5.3-8.02-3.39-15.22-8.24-21.4-14.42-6.18-6.18-11.03-13.38-14.42-21.4-3.51-8.31-5.3-17.13-5.3-26.21,0-15.91-12.94-28.85-28.85-28.85-7.08,0-12.82-5.74-12.82-12.82s5.74-12.82,12.82-12.82c14.56,0,28.24,5.67,38.54,15.96,10.29,10.29,15.96,23.98,15.96,38.54,0,22.98,18.7,41.68,41.68,41.68h.18c11.1,0,21.54-4.31,29.4-12.14,5.02-5,13.14-4.98,18.14.04,5,5.02,4.98,13.14-.04,18.14-12.7,12.64-29.57,19.61-47.49,19.61Z"/>
      <path class="cls-1" d="M183.94,214.05c-8.41-8.41-21.46-9.86-31.62-3.67-12.92,7.88-27.79,12.08-43.32,12.08-45.96,0-83.35-37.39-83.35-83.35h0c0-7.08-5.74-12.82-12.82-12.82S0,132.03,0,139.11h0c0,14.72,2.88,29,8.56,42.45,5.49,12.98,13.34,24.64,23.35,34.64,10,10,21.66,17.86,34.64,23.35,13.45,5.68,27.73,8.56,42.45,8.56s29-2.88,42.45-8.56c4.99-2.11,9.78-4.57,14.36-7.36l8.3,8.3c10.02,10.02,26.25,10.02,36.27,0h0s-26.44-26.44-26.44-26.44Z"/>
      <path class="cls-1" d="M98.37,100.27c-2.73,0-5.49-.87-7.82-2.67-13.38-10.31-29.4-16.23-46.34-17.14-7.07-.38-12.5-6.42-12.12-13.49.38-7.07,6.42-12.5,13.49-12.12,22.15,1.18,43.11,8.94,60.62,22.43,5.61,4.32,6.65,12.37,2.33,17.98-2.53,3.28-6.33,5-10.17,5Z"/>
      <path class="cls-1" d="M120.36,127.9c-3.35-3.35-3.71-8.55-1.09-12.3-3.14-1.38-6.62-2.14-10.27-2.14-14.16,0-25.65,11.48-25.65,25.65s11.48,25.65,25.65,25.65,25.65-11.48,25.65-25.65c0-3.58-.73-6.98-2.06-10.08-3.75,2.57-8.9,2.19-12.23-1.14ZM119.39,136.62c-2.14,2.14-5.61,2.14-7.75,0s-2.14-5.61,0-7.75,5.61-2.14,7.75,0,2.14,5.61,0,7.75Z"/>
    </g>
  </g>
</svg>