<svg xmlns="http://www.w3.org/2000/svg" viewBox="0 0 219.99 219.99" data-guides="{&quot;vertical&quot;:[],&quot;horizontal&quot;:[]}"><defs/><path fill="#3b82f6" stroke="" fill-opacity="1" stroke-width="1" stroke-opacity="0" class="cls-1" id="tSvg2871cd01dd" title="Path 8" d="M210.4347 67.5461C204.9449 54.5667 197.0953 42.9071 187.0856 32.9075C177.086 22.9079 165.4265 15.0482 152.447 9.5585C138.9976 3.8787 124.7181 0.9988 109.9987 0.9988C109.9987 1.0721 109.9987 1.1455 109.9987 1.2188C109.9987 13.5683 117.7484 24.4179 129.128 28.6777C125.5781 35.6474 126.2181 44.6771 132.6378 51.0868C132.6378 51.0868 132.6378 51.0868 132.6378 51.0868C142.5574 41.1672 158.5768 41.0772 168.6164 50.8068C183.8758 65.9262 193.3454 86.8754 193.3454 109.9945C193.3454 122.434 190.6855 134.3835 185.4357 145.523C182.4158 151.9328 185.1657 159.5725 191.5655 162.5924C193.3354 163.4223 195.1953 163.8223 197.0253 163.8223C201.8351 163.8223 206.4449 161.1024 208.6348 156.4626C215.5045 141.8832 218.9944 126.2438 218.9944 109.9945C218.9944 95.275 216.1145 80.9956 210.4347 67.5461Z"/><path fill="#3b82f6" stroke="" fill-opacity="1" stroke-width="1" stroke-opacity="0" class="cls-1" id="tSvgc19c7c1977" title="Path 9" d="M110.1787 177.3118C110.1187 177.3118 110.0587 177.3118 109.9987 177.3118C100.9191 177.3118 92.0994 175.5318 83.7898 172.012C75.7701 168.6221 68.5704 163.7723 62.3906 157.5926C56.2109 151.4128 51.3611 144.2131 47.9712 136.1934C44.4613 127.8837 42.6714 119.0641 42.6714 109.9845C42.6714 94.0751 29.7319 81.1356 13.8226 81.1356C6.7428 81.1356 1.0031 75.3958 1.0031 68.3161C1.0031 61.2364 6.7428 55.4966 13.8226 55.4966C28.382 55.4966 42.0614 61.1664 52.361 71.456C62.6506 81.7456 68.3204 95.435 68.3204 109.9945C68.3204 132.9735 87.0196 151.6728 109.9987 151.6728C110.0587 151.6728 110.1187 151.6728 110.1787 151.6728C121.2783 151.6728 131.7179 147.363 139.5775 139.5333C144.5973 134.5335 152.717 134.5535 157.7168 139.5733C162.7166 144.5931 162.6966 152.7128 157.6768 157.7126C144.9773 170.352 128.108 177.3218 110.1787 177.3118Z"/><path fill="#3b82f6" stroke="" fill-opacity="1" stroke-width="1" stroke-opacity="0" class="cls-1" id="tSvg9b51eb1fbb" title="Path 10" d="M184.9357 184.9315C176.5261 176.5218 163.4766 175.0719 153.317 181.2616C140.3975 189.1413 125.5281 193.3411 109.9987 193.3411C64.0406 193.3411 26.652 155.9526 26.652 109.9945C26.652 109.9945 26.652 109.9945 26.652 109.9945C26.652 102.9147 20.9123 97.175 13.8326 97.175C6.7528 97.175 1.0031 102.9147 1.0031 109.9945C1.0031 109.9945 1.0031 109.9945 1.0031 109.9945C1.0031 124.7139 3.883 138.9933 9.5627 152.4428C15.0525 165.4222 22.9022 177.0818 32.9118 187.0814C42.9114 197.081 54.5709 204.9407 67.5504 210.4305C80.9999 216.1102 95.2793 218.9901 109.9987 218.9901C124.7181 218.9901 138.9976 216.1102 152.447 210.4305C157.4368 208.3205 162.2266 205.8606 166.8065 203.0707C169.573 205.8373 172.3396 208.6039 175.1061 211.3704C185.1257 221.39 201.3551 221.39 211.3747 211.3704C211.3747 211.3704 211.3747 211.3704 211.3747 211.3704C211.3747 211.3704 184.9357 184.9315 184.9357 184.9315C184.9357 184.9315 184.9357 184.9315 184.9357 184.9315Z"/><path fill="#3b82f6" stroke="" fill-opacity="1" stroke-width="1" stroke-opacity="0" class="cls-1" id="tSvg14abe420643" title="Path 11" d="M99.3691 71.156C96.6393 71.156 93.8794 70.286 91.5495 68.4861C78.17 58.1765 62.1506 52.2568 45.2113 51.3468C38.1416 50.9668 32.7118 44.927 33.0918 37.8573C33.4718 30.7876 39.5115 25.3578 46.5813 25.7378C68.7304 26.9178 89.6895 34.6775 107.1988 48.1669C112.8086 52.4867 113.8486 60.5364 109.5287 66.1462C106.9988 69.4261 103.199 71.146 99.3691 71.156Z"/><path fill="#3b82f6" stroke="" fill-opacity="1" stroke-width="1" stroke-opacity="0" class="cls-1" id="tSvga54e8d73e4" title="Path 12" d="M121.3583 98.7849C118.0084 95.435 117.6484 90.2352 120.2683 86.4854C117.1284 85.1054 113.6486 84.3455 109.9987 84.3455C95.8393 84.3455 84.3497 95.825 84.3497 109.9945C84.3497 124.1639 95.8293 135.6434 109.9987 135.6434C124.1682 135.6434 135.6477 124.1639 135.6477 109.9945C135.6477 106.4146 134.9177 103.0147 133.5878 99.9149C129.8379 102.4848 124.6881 102.1048 121.3583 98.7849ZM120.3883 107.5046C118.2484 109.6445 114.7785 109.6445 112.6386 107.5046C110.4987 105.3646 110.4987 101.8948 112.6386 99.7549C114.7785 97.6149 118.2484 97.6149 120.3883 99.7549C122.5282 101.8948 122.5282 105.3646 120.3883 107.5046Z"/></svg>